<?xml version="1.0" encoding="utf-8"?>
<!-- Generator: Adobe Illustrator 15.0.2, SVG Export Plug-In . SVG Version: 6.00 Build 0)  -->
<!DOCTYPE svg PUBLIC "-//W3C//DTD SVG 1.1//EN" "http://www.w3.org/Graphics/SVG/1.1/DTD/svg11.dtd">
<svg version="1.1" id="Laag_1" xmlns="http://www.w3.org/2000/svg" xmlns:xlink="http://www.w3.org/1999/xlink" x="0px" y="0px"
	 width="595.28px" height="841.89px" viewBox="0 0 595.28 841.89" enable-background="new 0 0 595.28 841.89" xml:space="preserve">
<g>
	<g>
		<defs>
			<rect id="SVGID_1_" x="-250" y="264.89" width="1094.173" height="313.701"/>
		</defs>
		<clipPath id="SVGID_2_">
			<use xlink:href="#SVGID_1_"  overflow="visible"/>
		</clipPath>
		<polygon clip-path="url(#SVGID_2_)" fill="#003D5C" points="-112.047,578.591 -119.606,578.591 -127.166,577.646 -133.78,576.702 
			-140.394,574.811 -146.063,572.921 -150.788,570.087 -156.457,567.252 -160.236,563.473 -164.016,559.694 -167.795,554.969 
			-170.63,550.245 -173.465,544.576 -175.354,537.961 -176.299,531.347 -177.244,524.733 -177.244,517.173 -177.244,510.559 
			-176.299,503.946 -175.354,497.332 -173.465,491.662 -170.63,485.993 -167.795,480.324 -164.016,475.599 -160.236,471.82 
			-155.512,467.095 -153.622,465.206 -150.788,463.316 -145.118,460.481 -139.449,457.646 -133.78,455.756 -127.166,453.867 
			-120.551,452.921 -112.992,452.921 -105.433,452.921 -99.764,453.867 -88.425,455.756 -79.921,458.591 -72.362,460.481 
			-72.362,487.882 -80.866,487.882 -82.756,483.158 -85.591,479.378 -88.425,475.599 -92.205,472.764 -96.929,469.929 
			-101.654,468.04 -107.323,467.095 -113.937,466.15 -122.441,467.095 -127.166,468.04 -130.945,468.985 -134.725,470.875 
			-138.504,472.764 -141.339,474.654 -144.173,477.489 -147.008,481.268 -149.843,485.047 -151.732,488.828 -153.622,493.551 
			-154.567,498.276 -155.512,503 -156.457,509.615 -156.457,515.284 -156.457,521.898 -155.512,527.568 -154.567,532.292 
			-152.677,537.016 -150.788,541.741 -148.898,545.52 -146.063,549.299 -142.284,552.134 -139.449,554.969 -135.669,556.859 
			-130.945,558.749 -127.166,560.638 -122.441,561.583 -117.717,562.528 -108.268,563.473 -98.819,562.528 -91.26,561.583 
			-91.26,525.677 -72.362,525.677 -72.362,571.977 -76.142,573.867 -80.866,574.811 -91.26,576.702 -96.929,577.646 
			-102.599,577.646 -112.047,578.591 		"/>
		<path clip-path="url(#SVGID_2_)" fill="#003D5C" d="M-31.732,531.347l0.945,9.448l0.945,3.78l0.945,2.834l0.945,2.835l1.89,2.835
			l1.89,1.89l1.89,1.89l2.834,1.89l1.89,0.945l2.834,0.944l2.834,0.945l5.669,0.944h6.614h11.338l6.614-0.944l6.614-1.89
			l3.779,11.338l-3.779,1.89l-2.834,0.945l-4.725,1.89l-3.779,0.945l-8.504,1.89H0.394h-4.725h-10.394l-4.725-0.945l-4.724-0.944
			l-4.725-0.945l-3.779-1.89l-2.835-1.89l-3.779-1.89l-2.834-2.835l-2.835-3.779l-1.89-3.779l-1.89-3.78l-0.945-5.669l-0.945-5.669
			l-0.945-5.67v-6.614v-5.669l0.945-4.725l0.945-4.725l0.945-4.724l1.89-4.725l1.89-3.779l2.835-3.78l2.834-3.779l2.834-3.779
			l3.78-2.835l2.834-2.834l4.725-1.891l3.779-1.89l4.725-0.944l4.724-0.945l4.725-0.944l4.725,0.944h4.724l3.78,0.945l3.779,1.89
			l3.78,1.89l2.834,1.89l2.834,1.89l2.835,2.835l1.89,3.779l1.89,2.835L26.85,503l0.945,3.779l1.89,8.504l0.945,10.394v5.67H-31.732
			L-31.732,531.347z M-9.055,492.607h-4.725l-1.89,0.944l-1.89,0.945l-3.78,1.89l-1.89,1.89l-1.89,1.89l-2.835,3.78l-0.945,1.89
			l-0.945,2.834l-0.945,2.835l-0.945,2.835v2.834v3.78h40.63v-6.614l-0.945-5.67l-0.945-4.724l-1.89-4.725l-0.945-0.945l-1.89-1.89
			l-2.834-1.89l-1.89-0.945l-1.89-0.944H-9.055L-9.055,492.607z"/>
		<polygon clip-path="url(#SVGID_2_)" fill="#003D5C" points="94.882,576.702 43.858,576.702 42.913,572.921 42.913,569.142 
			53.307,565.363 54.252,565.363 55.197,564.417 57.086,562.528 58.031,559.694 58.031,556.859 58.976,530.402 58.976,458.591 
			42.913,458.591 42.913,449.142 56.142,446.307 63.701,445.363 70.315,445.363 74.094,445.363 75.984,447.252 76.929,448.198 
			77.874,449.142 77.874,451.977 77.874,530.402 78.819,560.638 78.819,563.473 79.764,564.417 80.708,564.417 94.882,568.198 
			94.882,572.921 94.882,574.811 94.882,576.702 		"/>
		<path clip-path="url(#SVGID_2_)" fill="#003D5C" d="M178.976,578.591h-2.834l-1.89-0.945l-1.89-1.89l-1.89-1.89v-2.835
			l-0.945-1.89v-4.725l-4.725,3.78l-5.669,4.724l-3.78,1.89l-3.779,1.891l-3.78,0.944l-3.779,0.945l-3.78-0.945h-3.779l-6.614-0.944
			l-2.834-0.945l-3.78-1.89l-2.834-1.89l-2.834-1.89l-2.835-2.835l-1.89-2.835l-1.89-3.779l-1.89-3.779l-1.89-5.669l-0.945-4.725
			v-6.614l-0.945-6.614l0.945-5.669v-5.67l0.945-4.725l1.89-4.724l1.89-4.725l2.834-4.725l1.89-3.779l3.78-2.835l2.834-3.779
			l3.78-2.835l3.779-1.89l3.78-1.89l4.724-1.89l3.78-0.945l4.724-0.944h4.725h10.394l7.559,0.944v-24.566H152.52v-9.449
			l13.229-2.835l7.559-0.944h6.614h3.78l2.834,0.944l0.945,0.945v1.89l0.945,3.779l-0.945,76.536l0.945,33.07h16.063l1.89,7.56
			l-5.669,2.834l-6.614,2.835l-7.559,1.89L178.976,578.591L178.976,578.591z M169.527,496.386l-7.559-1.89h-4.724h-5.669h-3.78
			h-3.779l-2.834,0.945l-2.835,1.89l-1.89,0.944l-1.89,2.835l-3.78,4.725l-2.834,5.669l-0.945,6.614l-0.945,7.559v8.504v6.614
			l0.945,5.67l0.945,2.834l1.89,1.891l0.945,2.834l1.89,0.945l0.945,1.89l1.89,0.944l4.724,1.891l3.78,0.944l5.669,0.945
			l5.669-0.945l4.725-0.944l8.504-3.78l0.945-26.456V496.386L169.527,496.386z"/>
		<path clip-path="url(#SVGID_2_)" fill="#003D5C" d="M235.669,531.347l0.945,9.448l0.945,3.78l0.945,2.834l1.89,2.835l0.945,2.835
			l1.89,1.89l1.89,1.89l2.834,1.89l1.89,0.945l2.834,0.944l2.835,0.945l5.669,0.944h6.614h11.339l6.614-0.944l6.614-1.89
			l3.78,11.338l-3.78,1.89l-2.834,0.945l-4.725,1.89l-3.779,0.945l-8.504,1.89h-4.725h-4.724h-10.394l-4.724-0.945l-4.725-0.944
			l-3.779-0.945l-4.725-1.89l-2.834-1.89l-3.78-1.89l-2.834-2.835l-1.89-3.779l-2.835-3.779l-1.89-3.78l-0.945-5.669l-0.945-5.669
			l-0.945-5.67v-6.614v-5.669l0.945-4.725l0.945-4.725l0.945-4.724l1.89-4.725l1.89-3.779l2.834-3.78l2.834-3.779l2.835-3.779
			l3.779-2.835l3.78-2.834l3.779-1.891l3.78-1.89l4.724-0.944l4.725-0.945l4.724-0.944l4.725,0.944h4.725l3.779,0.945l3.78,1.89
			l3.779,1.89l2.834,1.89l2.835,1.89l2.834,2.835l1.89,3.779l1.89,2.835l0.945,3.779l1.89,3.779l0.945,8.504l0.945,10.394v5.67
			H235.669L235.669,531.347z M259.291,492.607h-4.724l-2.835,0.944l-1.89,0.945l-3.779,1.89l-1.89,1.89l-1.89,1.89l-2.834,3.78
			l-0.945,1.89l-0.945,2.834l-0.945,2.835v2.835l-0.945,2.834v3.78h40.63v-6.614l-0.945-5.67l-0.945-4.724l-1.89-4.725l-0.945-0.945
			l-0.945-1.89l-3.78-1.89l-1.89-0.945l-1.89-0.944H259.291L259.291,492.607z"/>
		<polygon clip-path="url(#SVGID_2_)" fill="#003D5C" points="382.126,501.111 379.291,500.166 376.456,499.221 372.677,499.221 
			368.897,498.276 361.339,499.221 355.669,500.166 350,502.055 347.165,504.89 347.165,529.458 347.165,559.694 347.165,561.583 
			348.11,562.528 349.055,563.473 350,563.473 368.897,567.252 368.897,571.977 368.897,574.811 367.952,576.702 314.095,576.702 
			313.149,571.977 313.149,569.142 321.653,565.363 323.543,563.473 325.433,561.583 327.322,557.803 327.322,554.024 
			328.268,529.458 328.268,494.497 311.26,494.497 311.26,485.047 324.488,482.213 332.047,481.268 339.606,481.268 342.44,481.268 
			343.386,482.213 344.33,482.213 345.275,483.158 346.221,484.103 346.221,487.882 346.221,494.497 348.11,492.607 
			350.944,489.772 353.779,486.938 356.614,485.047 360.394,483.158 364.173,482.213 368.897,481.268 372.677,481.268 
			377.401,481.268 381.181,481.268 384.016,482.213 385.905,483.158 382.126,501.111 		"/>
		<polygon clip-path="url(#SVGID_2_)" fill="#003D5C" points="443.543,576.702 393.465,576.702 392.52,572.921 392.52,569.142 
			401.969,565.363 402.913,565.363 404.803,564.417 405.748,562.528 406.692,559.694 407.638,556.859 407.638,530.402 
			407.638,458.591 391.574,458.591 391.574,449.142 404.803,446.307 413.307,445.363 419.921,445.363 422.756,445.363 
			424.646,447.252 425.591,448.198 426.535,449.142 426.535,451.977 426.535,530.402 427.48,560.638 428.425,563.473 
			428.425,564.417 430.314,564.417 444.488,568.198 444.488,572.921 444.488,574.811 443.543,576.702 		"/>
		<path clip-path="url(#SVGID_2_)" fill="#003D5C" d="M522.913,578.591l-3.779-0.945h-2.835l-2.834-1.89l-1.891-1.89l-0.944-1.89
			l-0.945-2.835l-0.944-5.669l-4.725,3.779l-6.614,5.669l-3.779,1.89l-5.67,1.891l-4.724,0.944l-5.67,0.945h-4.724l-4.725-1.89
			l-3.78-0.945l-3.779-2.835l-0.944-0.944l-1.89-1.89l-0.945-1.89l-0.945-1.891l-1.89-4.724v-4.725v-3.779l0.945-2.835l0.944-2.835
			l0.945-2.834l3.779-5.67l3.779-3.779l5.67-2.835l5.669-2.834l5.67-1.89l6.613-0.945l20.788-2.835v-12.283v-4.725l-0.945-2.834
			l-1.89-2.835l-1.89-1.89l-1.89-0.945l-0.945-0.944l-3.779-0.945h-4.725h-5.669h-5.669l-5.67,0.945l-12.283,1.89l-3.779-12.283
			l7.559-2.835l8.504-1.89l7.56-0.945l8.504-0.944l4.724,0.944h5.67l6.614,0.945l5.669,1.89l4.725,2.835l2.835,2.834l1.89,1.89
			l0.944,2.835l1.89,3.779v3.779l0.945,4.725v23.622l0.945,32.126h17.008l0.944,7.56l-1.89,1.89l-2.835,0.944l-5.669,2.835
			l-6.614,1.89L522.913,578.591L522.913,578.591z M508.74,534.181l-6.614,0.945l-11.339,1.89l-7.559,2.835l-2.835,0.944
			l-2.835,1.891l-1.89,1.89l-0.944,2.834l-0.945,1.89v3.78v2.834l0.945,1.89l0.944,1.891l1.89,0.944l1.89,0.945l2.835,0.944h2.835
			l3.779-0.944h3.779l6.614-2.835l9.449-3.779V534.181L508.74,534.181z"/>
		<polygon clip-path="url(#SVGID_2_)" fill="#003D5C" points="666.535,576.702 623.07,576.702 622.126,572.921 622.126,568.198 
			627.795,565.363 628.74,564.417 629.685,563.473 631.574,561.583 631.574,559.694 632.52,558.749 632.52,556.859 632.52,530.402 
			632.52,517.173 632.52,511.504 632.52,507.725 631.574,503.946 630.63,501.111 627.795,498.276 624.96,497.332 621.181,496.386 
			615.512,495.442 607.952,496.386 600.394,498.276 593.779,500.166 589.055,502.055 589.055,530.402 590,559.694 590,563.473 
			590.944,564.417 591.89,564.417 605.118,568.198 605.118,572.921 605.118,574.811 604.173,576.702 556.929,576.702 
			555.984,572.921 555.984,569.142 564.488,565.363 565.433,564.417 566.378,563.473 568.268,561.583 569.213,558.749 
			570.157,555.914 570.157,530.402 570.157,494.497 554.095,494.497 554.095,485.047 560.708,484.103 568.268,482.213 
			575.826,482.213 582.44,481.268 585.275,482.213 587.165,483.158 588.11,485.047 589.055,487.882 589.055,492.607 
			594.725,488.828 602.283,485.047 606.063,483.158 610.787,482.213 616.456,481.268 622.126,480.324 626.851,481.268 
			631.574,481.268 638.188,483.158 641.023,484.103 643.858,485.993 645.748,487.882 647.638,489.772 649.527,494.497 
			650.473,497.332 651.417,499.221 651.417,505.835 651.417,512.45 651.417,530.402 652.362,561.583 652.362,564.417 
			653.307,564.417 654.252,565.363 667.48,568.198 667.48,572.921 667.48,574.811 666.535,576.702 		"/>
		<path clip-path="url(#SVGID_2_)" fill="#003D5C" d="M751.574,578.591h-2.834l-1.89-0.945l-1.891-1.89l-0.944-1.89l-0.945-2.835
			v-1.89l-0.944-4.725l-4.725,3.78l-5.669,4.724l-2.835,1.89l-3.779,1.891l-3.779,0.944l-4.725,0.945l-3.779-0.945H710l-6.614-0.944
			l-3.779-0.945l-2.835-1.89l-2.835-1.89l-2.834-1.89l-2.835-2.835l-2.835-2.835l-1.89-3.779l-1.89-3.779l-0.945-5.669l-0.944-4.725
			l-0.945-6.614v-6.614v-5.669l0.945-5.67l0.944-4.725l1.891-4.724l1.89-4.725l1.89-4.725l2.835-3.779l2.834-2.835l3.779-3.779
			l2.835-2.835l3.779-1.89l4.725-1.89l3.779-1.89l4.725-0.945l4.725-0.944h4.725h9.448l7.56,0.944v-24.566h-17.008v-9.449
			l14.173-2.835l7.56-0.944h6.614h3.779l1.89,0.944l0.945,0.945l0.944,1.89v3.779v76.536l0.945,33.07h15.118l1.89,7.56l-4.725,2.834
			l-6.614,2.835l-7.559,1.89L751.574,578.591L751.574,578.591z M742.126,496.386l-7.56-1.89h-4.724h-5.67h-3.779h-2.835
			l-2.834,0.945l-2.835,1.89l-2.835,0.944l-1.89,2.835l-3.779,4.725l-1.89,5.669l-1.89,6.614l-0.945,7.559v8.504l0.945,6.614
			l0.944,5.67l0.945,2.834l0.944,1.891l1.891,2.834l0.944,0.945l1.89,1.89l1.89,0.944l3.78,1.891l4.724,0.944l4.725,0.945h3.779
			l2.835-0.945l4.725-0.944l7.559-3.78l0.945-26.456V496.386L742.126,496.386z"/>
		<path clip-path="url(#SVGID_2_)" fill="#003D5C" d="M-45.906,377.331h-6.614h-3.779v25.512v0.945l0.945,0.945l0.945,0.945
			l1.89,0.945l10.394,1.89l-0.945,1.89v2.835h-39.685v-4.725l4.724-1.89l1.89-0.945l1.89-1.89l0.945-1.89l0.945-2.834v-58.583
			v-29.292h-13.229v-5.669l10.394-1.89l6.614-0.945h5.669h1.89l1.89,0.945l0.945,1.89v1.89l0.945,3.779l2.834-3.779l2.834-0.945
			l1.89-0.945l5.669-1.89l5.669-0.945l7.559,0.945h2.834l2.835,0.945l4.724,2.835l4.725,3.779l2.834,4.725l2.835,6.614v3.78
			l0.945,3.779l0.945,8.504l-0.945,5.669v4.725L-10,353.709l-1.89,3.78l-1.89,3.779l-1.89,2.835l-1.89,2.834l-2.835,2.834
			l-2.834,1.89l-2.834,1.89l-5.669,1.89l-3.78,0.945l-2.834,0.945H-45.906L-45.906,377.331z M-42.126,311.189h-5.669l-3.78,1.89
			l-3.779,0.945l-1.89,1.89v24.567v28.346l4.724,0.945l7.559,0.945l4.725-0.945l1.89-0.945l2.834-0.945l1.89-0.945l0.945-1.89
			l3.779-3.78l0.945-1.89l0.945-1.89l1.89-5.669l0.945-4.724v-5.669v-5.669l-0.945-5.669l-1.89-4.724l-1.89-4.725l-1.89-3.779
			l-3.779-2.835l-3.78-1.89L-42.126,311.189L-42.126,311.189z"/>
		<polygon clip-path="url(#SVGID_2_)" fill="#003D5C" points="57.086,316.859 51.417,314.969 45.748,314.024 40.079,314.969 
			36.299,315.914 32.52,317.804 29.685,319.693 29.685,340.481 29.685,365.993 30.63,367.882 30.63,368.827 31.575,368.827 
			46.693,371.662 45.748,376.386 4.173,376.386 4.173,374.497 4.173,372.607 9.842,369.772 11.732,368.827 13.622,366.938 
			14.567,364.103 14.567,360.323 15.512,340.481 15.512,311.189 2.283,311.189 2.283,305.52 12.677,303.63 18.346,302.686 
			24.016,302.686 25.905,302.686 27.795,303.63 28.74,305.52 29.685,307.41 29.685,314.024 32.52,310.245 35.354,308.355 
			37.244,306.465 40.079,304.575 43.858,303.63 46.693,302.686 49.527,302.686 56.142,302.686 59.921,304.575 57.086,316.859 		"/>
		<path clip-path="url(#SVGID_2_)" fill="#003D5C" d="M99.606,377.331h-7.559l-3.779-0.945l-2.834-0.945l-5.669-2.834l-4.725-3.78
			l-2.834-1.89l-0.945-2.834l-1.89-2.835l-0.945-3.779l-0.945-3.78l-0.945-3.779l-0.945-3.78v-4.724l0.945-7.559l1.89-6.614
			l1.89-3.779l1.89-2.835l1.89-2.834l1.89-2.834l2.835-2.835l1.89-2.834l2.834-1.89l3.78-1.89l2.834-0.945l2.835-0.945l3.779-0.945
			h3.779l7.559,0.945h3.78l2.834,0.945l3.78,1.89l2.834,0.945l4.725,3.779l1.89,2.834l1.89,2.835l1.89,5.669l1.89,7.559l0.945,9.449
			l-0.945,6.614l-1.89,7.559l-3.779,5.669l-1.89,3.78l-1.89,2.834l-4.724,4.725l-6.614,3.779L110,375.441l-3.78,0.945l-3.779,0.945
			H99.606L99.606,377.331z M99.606,310.245h-2.834l-2.834,0.945l-3.78,1.89l-1.89,0.945l-0.945,1.89l-2.835,3.779l-0.945,4.725
			l-0.945,4.724l-0.945,4.725v5.669v5.669v2.835l0.945,2.834l0.945,4.725l1.89,4.724l2.834,3.78l1.89,0.945l1.89,1.89l3.78,1.89
			h5.669h2.834h1.89l3.78-1.89l1.89-1.89l0.945-0.945l1.89-1.89l0.945-1.89l0.945-3.779l0.945-4.725l0.945-5.669v-4.724v-5.669
			l-0.945-5.669l-0.945-5.669l-1.89-4.725l-2.834-3.779l-2.834-2.835l-1.89-0.945l-2.834-0.945L99.606,310.245L99.606,310.245z"/>
		<polygon clip-path="url(#SVGID_2_)" fill="#003D5C" points="212.992,307.41 212.047,309.3 210.157,312.134 206.378,320.638 
			183.701,376.386 172.362,380.166 150.63,317.804 149.685,314.969 147.795,313.079 145.905,310.245 144.016,308.355 
			144.016,306.465 144.96,303.63 173.307,303.63 173.307,309.3 164.803,309.3 181.811,363.158 197.874,319.693 198.819,317.804 
			198.819,315.914 198.819,314.024 198.819,313.079 197.874,311.189 195.984,309.3 191.26,308.355 191.26,305.52 192.205,303.63 
			213.937,303.63 212.992,307.41 		"/>
		<path clip-path="url(#SVGID_2_)" fill="#003D5C" d="M261.181,376.386h-39.685v-1.89v-1.89l7.559-2.835l1.89-0.945l0.945-1.89
			l0.945-1.89l0.945-1.89v-22.677v-29.292h-13.229v-5.669l11.339-1.89l5.669-0.945h4.724h2.835l1.89,0.945l0.945,1.89l0.945,1.89
			v33.071v25.512l0.945,2.834l0.945,0.945l11.339,1.89v1.89L261.181,376.386L261.181,376.386z M240.394,287.567h-0.945l-1.89-0.945
			l-3.78-3.779l-2.834-3.78L230,278.119v-1.89v-0.945l0.945-1.89l3.779-3.779l2.835-2.835l2.834-0.945h1.89l0.945,0.945l3.78,2.835
			l3.779,3.779l0.945,1.89v0.945v1.89l-0.945,0.945l-2.834,3.78l-3.78,3.779l-1.89,0.945H240.394L240.394,287.567z"/>
		<polygon clip-path="url(#SVGID_2_)" fill="#003D5C" points="356.614,376.386 321.653,376.386 321.653,374.497 321.653,371.662 
			327.322,369.772 328.268,368.827 329.213,366.938 330.157,364.103 331.103,363.158 331.103,340.481 331.103,330.087 
			331.103,325.363 330.157,322.528 330.157,319.693 328.268,316.859 326.378,314.969 324.488,314.024 320.708,313.079 
			316.929,313.079 311.26,313.079 305.591,314.024 296.142,317.804 296.142,340.481 297.086,365.048 297.086,366.938 
			297.086,367.882 298.031,368.827 298.977,369.772 310.314,371.662 310.314,373.552 309.37,376.386 271.575,376.386 
			271.575,372.607 277.244,369.772 279.134,368.827 280.079,366.938 281.023,365.048 281.968,362.213 281.968,340.481 
			281.968,311.189 269.685,311.189 269.685,305.52 280.079,303.63 291.417,302.686 293.307,303.63 295.197,303.63 296.142,305.52 
			296.142,307.41 296.142,313.079 300.866,309.3 306.535,306.465 310.314,304.575 314.095,303.63 318.818,302.686 322.599,302.686 
			330.157,302.686 332.992,303.63 334.882,303.63 336.771,304.575 338.661,306.465 341.496,309.3 343.386,312.134 345.275,316.859 
			345.275,321.583 345.275,326.308 345.275,340.481 346.221,366.938 346.221,367.882 346.221,368.827 348.11,369.772 
			356.614,371.662 356.614,373.552 356.614,376.386 		"/>
		<polygon clip-path="url(#SVGID_2_)" fill="#003D5C" points="418.977,322.528 415.196,317.804 413.307,315.914 411.417,314.024 
			408.583,312.134 406.692,311.189 403.858,310.245 401.023,309.3 396.299,310.245 392.52,311.189 388.74,313.079 386.851,315.914 
			384.96,317.804 384.016,319.693 383.07,324.418 382.126,330.087 381.181,336.701 382.126,343.315 383.07,348.985 384.016,353.709 
			386.851,358.434 389.685,362.213 391.574,363.158 394.409,365.048 396.299,365.993 399.134,366.938 401.969,366.938 
			405.748,366.938 414.252,365.993 418.977,365.048 422.756,364.103 424.646,368.827 420.866,371.662 418.977,373.552 
			416.142,374.497 412.362,375.441 408.583,376.386 404.803,377.331 400.078,377.331 391.574,377.331 387.795,376.386 
			384.96,375.441 382.126,374.497 379.291,373.552 376.456,371.662 374.566,369.772 372.677,366.938 370.787,364.103 
			369.843,361.268 368.897,358.434 367.952,354.654 367.008,349.93 367.008,340.481 367.008,333.867 368.897,326.308 
			371.732,319.693 374.566,316.859 376.456,314.024 379.291,311.189 381.181,309.3 384.016,307.41 387.795,305.52 390.63,303.63 
			394.409,302.686 398.188,301.741 401.969,301.741 405.748,301.741 409.527,302.686 413.307,302.686 417.087,303.63 
			419.921,304.575 422.756,306.465 424.646,309.3 424.646,310.245 425.591,312.134 424.646,314.969 423.7,317.804 422.756,318.749 
			421.811,320.638 418.977,322.528 		"/>
		<path clip-path="url(#SVGID_2_)" fill="#003D5C" d="M473.779,376.386h-39.685v-1.89v-1.89l7.559-2.835l1.89-0.945l0.945-1.89
			l0.944-1.89l0.945-1.89v-22.677v-29.292h-13.229v-5.669l11.339-1.89l5.669-0.945h4.725h2.835l1.89,0.945l0.944,1.89l0.945,1.89
			l-0.945,33.071l0.945,25.512v2.834l1.89,0.945l11.339,1.89v1.89L473.779,376.386L473.779,376.386z M453.937,287.567h-1.89
			l-1.89-0.945l-2.835-3.779l-3.779-3.78l-0.944-0.945v-1.89v-0.945l0.944-1.89l3.779-3.779l2.835-2.835l3.779-0.945h0.945
			l1.89,0.945l2.835,2.835l3.779,3.779l0.944,1.89v0.945v1.89l-0.944,0.945l-2.835,3.78l-3.779,3.779l-1.89,0.945H453.937
			L453.937,287.567z"/>
		<path clip-path="url(#SVGID_2_)" fill="#003D5C" d="M497.401,340.481l0.945,7.559l1.89,5.669l0.944,1.89l0.945,2.834l3.779,2.834
			l1.89,1.89l1.89,0.945l3.78,1.89h4.724l5.67,0.945l8.504-0.945l10.394-1.89l1.89,4.724l-1.89,1.89l-2.835,1.89l-6.614,2.834
			l-6.614,1.89h-8.504h-7.559l-7.56-1.89l-2.834-0.945l-2.835-0.945l-2.835-1.89l-2.834-1.89l-1.89-1.89l-1.891-2.834l-1.89-2.835
			l-0.944-2.834l-0.945-3.779l-0.944-3.78v-4.724l-0.945-4.725l0.945-8.504l0.944-3.78l0.945-3.779l1.89-2.834l0.944-3.78
			l4.725-5.669l1.89-2.834l2.835-1.89l5.669-3.78l3.78-1.89l2.834-0.945h3.78l3.779-0.945l3.779,0.945h3.779l5.67,1.89l4.724,2.835
			l3.78,4.724l2.834,4.725l1.89,5.669l1.891,6.614v7.559v3.78H497.401L497.401,340.481z M514.409,309.3h-2.835l-3.779,0.945
			l-2.834,1.89l-1.891,2.835l-2.834,2.834l-0.945,4.724l-0.944,4.725l-0.945,6.614h32.126v-5.669l-0.944-4.724l-0.945-3.78
			l-0.945-3.779l-1.89-2.835l-0.944-0.945l-1.89-0.945l-1.891-0.945l-0.944-0.945H514.409L514.409,309.3z"/>
		<polygon clip-path="url(#SVGID_2_)" fill="#003D5C" points="-250,416.071 -99.764,416.071 -99.764,409.457 -250,409.457 
			-250,416.071 		"/>
		<polygon clip-path="url(#SVGID_2_)" fill="#003D5C" points="-250,375.441 -167.795,375.441 -167.795,368.827 -250,368.827 
			-250,375.441 		"/>
		<polygon clip-path="url(#SVGID_2_)" fill="#003D5C" points="-250,333.867 -167.795,333.867 -167.795,328.197 -250,328.197 
			-250,333.867 		"/>
		<polygon clip-path="url(#SVGID_2_)" fill="#003D5C" points="-250,293.237 -167.795,293.237 -167.795,286.623 -250,286.623 
			-250,293.237 		"/>
		<polygon clip-path="url(#SVGID_2_)" fill="#003D5C" points="-24.173,416.071 409.527,416.071 843.229,416.071 843.229,409.457 
			409.527,409.457 -24.173,409.457 -24.173,416.071 		"/>
	</g>
</g>
</svg>
