<?xml version="1.0" encoding="utf-8"?>
<!-- Generator: Adobe Illustrator 15.0.2, SVG Export Plug-In . SVG Version: 6.00 Build 0)  -->
<!DOCTYPE svg PUBLIC "-//W3C//DTD SVG 1.1//EN" "http://www.w3.org/Graphics/SVG/1.1/DTD/svg11.dtd">
<svg version="1.1" xmlns="http://www.w3.org/2000/svg" xmlns:xlink="http://www.w3.org/1999/xlink" x="0px" y="0px" width="595px"
	 height="842px" viewBox="0 0 595 842" enable-background="new 0 0 595 842" xml:space="preserve">
<g id="Background">
</g>
<g id="Guides">
</g>
<g id="Laag_4">
	<rect x="229.971" y="396.419" fill="#013D5D" width="133.316" height="49.534"/>
</g>
<g id="Foreground">
	<g display="none">
		<rect x="232.982" y="398.438" display="inline" fill="#FFFFFF" width="127.56" height="45.395"/>
		<path display="inline" fill="#FFFFFF" d="M296.762,421.135"/>
	</g>
	<g>
		<g>
			<path fill="#FFFFFF" d="M249.023,437.219c-4.816,0-7.598-2.195-7.598-7.174c0-4.211,2.902-7.455,7.517-7.455
				c2.398,0,3.707,0.502,4.757,0.926v3.164c-0.081,0-0.867,0-1.029,0c-0.522-1.471-1.673-2.539-3.808-2.539
				c-2.863,0-4.999,1.672-4.999,5.764c0,3.951,2.48,5.543,5.684,5.563c0.524,0,1.532-0.119,1.894-0.182v-4.191h2.277v5.422
				C252.429,437.02,250.515,437.219,249.023,437.219z"/>
			<path fill="#FFFFFF" d="M258.414,431.719c0.141,3.164,1.673,3.688,3.748,3.688c0.767,0,1.914-0.102,2.902-0.342l0.382,1.289
				c-0.886,0.545-2.457,0.908-3.787,0.908c-3.507,0-5.543-0.949-5.543-5.463c0-3.203,2.036-5.965,5.18-5.965
				c3.164,0,4.373,2.035,4.373,5.199v0.686H258.414z M261.135,427.184c-1.532,0-2.619,1.23-2.741,3.285h4.816
				C263.21,428.374,262.646,427.184,261.135,427.184z"/>
			<path fill="#FFFFFF" d="M273.185,437.081h-5.903c-0.08-0.363-0.101-0.625-0.08-0.969l1.107-0.383
				c0.443-0.141,0.625-0.543,0.646-1.027l0.081-3.123v-8.344H267.1v-1.129c0.807-0.182,2.358-0.422,3.284-0.422
				c0.544,0,0.848,0.221,0.848,0.826v9.068l0.08,3.545c0.02,0.344,0.039,0.465,0.282,0.525l1.673,0.342
				C273.267,436.334,273.267,436.797,273.185,437.081z"/>
			<path fill="#FFFFFF" d="M283.021,437.262c-0.987,0-1.13-0.988-1.13-1.715c-0.604,0.604-1.611,1.652-2.982,1.652
				c-2.116,0-4.453-0.826-4.453-5.197c0-3.689,2.419-6.008,5.401-6.008c0.927,0,1.451,0.063,2.014,0.162v-2.902h-1.953v-1.127
				c0.887-0.203,2.337-0.443,3.243-0.443c0.665,0,0.928,0.18,0.928,0.846l-0.02,8.986l0.079,3.891h1.854l0.183,0.887
				C285.478,436.698,284.311,437.262,283.021,437.262z M281.87,427.627c-0.482-0.1-1.107-0.24-2.075-0.24
				c-2.417,0-2.982,1.994-2.982,4.635c0,2.398,1.129,3.225,2.782,3.225c1.007,0,1.672-0.424,2.195-0.666l0.08-3.064V427.627z"/>
			<path fill="#FFFFFF" d="M289.63,431.719c0.142,3.164,1.673,3.688,3.749,3.688c0.765,0,1.914-0.102,2.9-0.342l0.384,1.289
				c-0.887,0.545-2.458,0.908-3.789,0.908c-3.506,0-5.542-0.949-5.542-5.463c0-3.203,2.036-5.965,5.18-5.965
				c3.164,0,4.372,2.035,4.372,5.199v0.686H289.63z M292.351,427.184c-1.531,0-2.621,1.23-2.741,3.285h4.817
				C294.427,428.374,293.862,427.184,292.351,427.184z"/>
			<path fill="#FFFFFF" d="M306.699,428.252c-0.403-0.201-0.906-0.322-1.512-0.322c-1.21,0-2.157,0.283-2.58,0.727v2.902
				l0.081,3.465c0,0.344,0.041,0.463,0.282,0.502l2.237,0.404c0,0.303,0,0.887-0.101,1.15h-6.328
				c-0.08-0.465-0.101-0.707-0.08-0.988l0.926-0.424c0.404-0.182,0.727-0.584,0.727-1.33l0.06-2.779v-4.072h-1.935v-1.168
				c0.826-0.182,2.277-0.443,3.265-0.443c0.524,0,0.827,0.182,0.827,0.766v0.846c0.523-0.828,1.712-1.631,3.063-1.631
				c0.745,0,1.29,0.139,1.591,0.301L306.699,428.252z"/>
			<path fill="#FFFFFF" d="M313.913,437.081h-5.905c-0.079-0.363-0.101-0.625-0.079-0.969l1.108-0.383
				c0.443-0.141,0.625-0.543,0.644-1.027l0.08-3.123v-8.344h-1.933v-1.129c0.805-0.182,2.357-0.422,3.284-0.422
				c0.544,0,0.847,0.221,0.847,0.826v9.068l0.079,3.545c0.021,0.344,0.041,0.465,0.283,0.525l1.672,0.342
				C313.993,436.334,313.993,436.797,313.913,437.081z"/>
			<path fill="#FFFFFF" d="M323.203,437.219c-1.43,0-1.632-0.764-1.673-1.732c-0.482,0.504-1.853,1.754-3.667,1.754
				c-1.572,0-2.762-0.846-2.762-2.539c0-2.277,2.035-3.205,3.99-3.506c1.109-0.162,2.238-0.283,2.399-0.305v-1.51
				c0-1.371-0.625-1.773-2.56-1.773c-0.747,0-1.834,0.162-2.74,0.424l-0.385-1.531c1.189-0.465,2.438-0.666,3.669-0.666
				c1.552-0.021,4.191,0.08,4.191,3.023v2.721l0.142,3.848h1.975l0.141,0.828C325.461,436.698,323.948,437.219,323.203,437.219z
				 M321.491,432.102c-0.082,0.02-1.25,0.141-2.116,0.322c-1.27,0.283-1.996,0.846-1.996,1.793c0,0.605,0.362,1.131,1.392,1.131
				c1.027,0,2.56-0.768,2.721-0.828V432.102z"/>
			<path fill="#FFFFFF" d="M339.949,437.081h-5.099c-0.06-0.344-0.101-0.707-0.06-1.049l0.605-0.363
				c0.401-0.242,0.543-0.645,0.543-0.988l0.06-3.102v-1.533c0-1.672-0.18-2.457-2.054-2.457c-1.17,0-2.539,0.482-3.063,0.764v3.227
				l0.06,3.465c0,0.344,0,0.545,0.283,0.605l1.53,0.342c0,0.322-0.019,0.807-0.1,1.09h-5.543c-0.061-0.305-0.079-0.668-0.079-0.969
				L328,435.69c0.402-0.164,0.604-0.666,0.625-1.049l0.061-3.063v-4.092h-1.915v-1.148c0.886-0.201,2.377-0.424,3.305-0.424
				c0.563,0,0.766,0.203,0.766,0.727v0.625c0.786-0.586,1.995-1.432,3.909-1.432c3.226,0,3.446,1.531,3.446,3.688v2.057l0.062,3.707
				c0.019,0.281,0.039,0.363,0.281,0.404l1.512,0.301C340.051,436.334,340.031,436.838,339.949,437.081z"/>
			<path fill="#FFFFFF" d="M349.885,437.262c-0.986,0-1.128-0.988-1.128-1.715c-0.604,0.604-1.613,1.652-2.982,1.652
				c-2.116,0-4.454-0.826-4.454-5.197c0-3.689,2.418-6.008,5.4-6.008c0.928,0,1.452,0.063,2.016,0.162v-2.902h-1.955v-1.127
				c0.888-0.203,2.337-0.443,3.244-0.443c0.666,0,0.928,0.18,0.928,0.846l-0.021,8.986l0.08,3.891h1.854l0.182,0.887
				C352.344,436.698,351.175,437.262,349.885,437.262z M348.736,427.627c-0.484-0.1-1.107-0.24-2.075-0.24
				c-2.42,0-2.982,1.994-2.982,4.635c0,2.398,1.128,3.225,2.78,3.225c1.008,0,1.673-0.424,2.196-0.666l0.081-3.064V427.627z"/>
		</g>
		<g>
			<path fill="#FFFFFF" d="M256.804,413.79c-0.642,0-0.939-0.018-1.282-0.08l0.061,3.035c0,0.221,0.063,0.338,0.392,0.4l1.2,0.236
				c0.016,0.172,0,0.377-0.079,0.564h-4.559c-0.062-0.283-0.062-0.361-0.046-0.504l0.579-0.219c0.358-0.156,0.577-0.525,0.577-0.949
				l0.063-6.848v-3.412h-1.503v-0.611c0.596-0.123,1.738-0.338,2.562-0.338c0.439,0,0.627,0.172,0.627,0.572l0.016,0.377
				c0.5-0.502,1.33-0.949,2.279-0.949c2.295,0,3.451,1.262,3.451,4.156C261.142,412.752,258.989,413.79,256.804,413.79z
				 M257.174,406.03c-0.793,0-1.436,0.344-1.748,0.549v2.879l0.049,3.326c0.326,0.078,0.624,0.156,1.377,0.156
				c1.715,0,2.45-1.607,2.45-3.42C259.302,407.78,258.723,406.03,257.174,406.03z"/>
			<path fill="#FFFFFF" d="M268.771,406.719c-0.33-0.156-0.846-0.297-1.314-0.297c-0.934,0-1.42,0.264-1.874,0.563v2.426
				l0.063,2.988c0,0.229,0.031,0.338,0.22,0.371l1.715,0.313c0,0.156-0.016,0.393-0.068,0.58h-4.865
				c-0.048-0.221-0.078-0.283-0.062-0.455l0.703-0.346c0.313-0.141,0.563-0.463,0.563-1.045l0.048-2.406v-3.414h-1.502v-0.633
				c0.641-0.127,1.753-0.332,2.531-0.332c0.388,0,0.622,0.143,0.622,0.572v0.818c0.456-0.645,1.373-1.404,2.421-1.404
				c0.579,0,0.971,0.109,1.176,0.219L268.771,406.719z"/>
			<path fill="#FFFFFF" d="M273.711,413.772c-2.436,0-3.891-1.232-3.891-4.205c0-2.283,1.815-4.518,4.032-4.518
				c2.639,0,3.946,1.293,3.946,4.266C277.799,411.583,276.036,413.772,273.711,413.772z M273.711,405.952
				c-1.689,0-2.045,1.742-2.045,3.381c0,1.779,0.449,3.467,2.312,3.467c1.684,0,1.967-1.623,1.967-3.264
				C275.944,407.766,275.6,405.952,273.711,405.952z"/>
			<path fill="#FFFFFF" d="M287.048,405.59c-0.298,0.266-0.548,0.719-0.854,1.506l-2.672,6.582l-1.236,0.377l-2.608-7.242
				c-0.124-0.361-0.374-0.846-0.728-1.082c0-0.172,0-0.381,0.062-0.543h3.368c0,0.176-0.016,0.574-0.046,0.668h-1.011l2.028,6.309
				l1.918-5.115c0.252-0.658,0.095-1.035-0.249-1.178l-0.533-0.189c0-0.186-0.016-0.332,0.03-0.494h2.546
				C287.063,405.293,287.063,405.465,287.048,405.59z"/>
			<path fill="#FFFFFF" d="M292.616,413.663h-4.59c-0.048-0.221-0.063-0.283-0.063-0.486l0.959-0.328
				c0.254-0.078,0.442-0.449,0.458-0.762l0.047-2.66v-3.412h-1.512v-0.65c0.705-0.143,1.826-0.332,2.546-0.332
				c0.455,0,0.69,0.143,0.69,0.605l-0.018,3.789l0.049,2.988c0,0.291,0.085,0.385,0.245,0.416l1.267,0.268
				C292.695,413.239,292.679,413.475,292.616,413.663z M290.243,403.295c-0.329,0-1.291-0.98-1.291-1.293
				c0-0.361,0.977-1.287,1.291-1.287c0.313,0,1.292,0.955,1.292,1.287C291.535,402.284,290.603,403.295,290.243,403.295z"/>
			<path fill="#FFFFFF" d="M303.72,413.663h-3.993c-0.047-0.221-0.078-0.346-0.063-0.52l0.642-0.281
				c0.251-0.109,0.406-0.557,0.423-0.807l0.03-2.629v-1.191c0-1.389-0.219-1.986-1.676-1.986c-0.946,0-1.684,0.252-2.355,0.564
				v2.613l0.046,2.879c0,0.354,0.032,0.494,0.282,0.543l1.27,0.266c0,0.141-0.017,0.377-0.078,0.549h-4.423
				c-0.028-0.221-0.059-0.268-0.043-0.455l0.729-0.299c0.282-0.125,0.47-0.447,0.484-0.9l0.032-2.582v-3.412h-1.448v-0.611
				c0.665-0.133,1.825-0.322,2.521-0.322c0.439,0,0.611,0.141,0.611,0.523v0.66c0.642-0.502,1.645-1.262,3.126-1.262
				c2.341,0,2.624,1.168,2.624,2.824v1.6l0.029,3.08c0.017,0.246,0.078,0.324,0.283,0.355l1.024,0.236
				C303.798,413.239,303.782,413.491,303.72,413.663z"/>
			<path fill="#FFFFFF" d="M311.011,407.333c-0.474-0.66-1.229-1.461-2.059-1.461c-1.527,0-2.295,0.926-2.295,3.193
				c0,1.938,0.721,3.506,2.781,3.506c0.72,0,1.448-0.125,2.075-0.328l0.205,0.51c-0.439,0.439-1.377,1.051-2.891,1.051
				c-2.781,0-3.916-1.145-3.916-4.299c0-2.236,1.667-4.533,4.166-4.533c0.954,0,2.687,0.172,2.687,1.137
				C311.765,406.625,311.498,407.049,311.011,407.333z"/>
			<path fill="#FFFFFF" d="M317.432,413.663h-4.597c-0.045-0.221-0.06-0.283-0.06-0.486l0.955-0.328
				c0.266-0.078,0.453-0.449,0.47-0.762l0.046-2.66v-3.412h-1.517v-0.65c0.688-0.143,1.831-0.332,2.539-0.332
				c0.443,0,0.678,0.143,0.678,0.605l-0.016,3.789l0.046,2.988c0,0.291,0.095,0.385,0.267,0.416l1.264,0.268
				C317.507,413.239,317.492,413.475,317.432,413.663z M315.059,403.295c-0.326,0-1.299-0.98-1.299-1.293
				c0-0.361,0.987-1.287,1.299-1.287c0.302,0,1.295,0.955,1.295,1.287C316.354,402.284,315.404,403.295,315.059,403.295z"/>
			<path fill="#FFFFFF" d="M320.204,409.458c0.141,2.471,1.357,3.059,3.011,3.059c0.595,0,1.493-0.102,2.247-0.273l0.218,0.557
				c-0.603,0.564-1.809,0.99-3.023,0.99c-2.712,0-4.188-0.912-4.188-4.143c0-2.52,1.628-4.66,4.047-4.66
				c2.357,0,3.307,1.67,3.307,4.063v0.408H320.204z M322.213,405.778c-1.09,0-1.992,0.863-2.009,2.896h3.729
				C323.934,407.018,323.574,405.778,322.213,405.778z"/>
		</g>
	</g>
	<g>
		<rect x="232.982" y="398.438" fill="#FFFFFF" width="127.56" height="0.75"/>
	</g>
	<g>
		<rect x="232.982" y="417.571" fill="#FFFFFF" width="17.539" height="0.75"/>
	</g>
	<g>
		<rect x="232.982" y="412.788" fill="#FFFFFF" width="9.57" height="0.75"/>
	</g>
	<g>
		<rect x="232.982" y="408.002" fill="#FFFFFF" width="9.57" height="0.75"/>
	</g>
	<g>
		<rect x="232.982" y="403.217" fill="#FFFFFF" width="9.57" height="0.75"/>
	</g>
	<g>
		<rect x="259.29" y="417.571" fill="#FFFFFF" width="101.252" height="0.75"/>
	</g>
	<g>
		<rect x="232.982" y="443.083" fill="#FFFFFF" width="127.56" height="0.75"/>
	</g>
</g>
</svg>
