<?xml version="1.0" encoding="UTF-8" standalone="no"?>
<!-- Generator: Adobe Illustrator 15.0.2, SVG Export Plug-In . SVG Version: 6.00 Build 0)  -->

<svg
   xmlns:dc="http://purl.org/dc/elements/1.1/"
   xmlns:cc="http://creativecommons.org/ns#"
   xmlns:rdf="http://www.w3.org/1999/02/22-rdf-syntax-ns#"
   xmlns:svg="http://www.w3.org/2000/svg"
   xmlns="http://www.w3.org/2000/svg"
   xmlns:sodipodi="http://sodipodi.sourceforge.net/DTD/sodipodi-0.dtd"
   xmlns:inkscape="http://www.inkscape.org/namespaces/inkscape"
   version="1.1"
   id="Laag_1"
   x="0px"
   y="0px"
   width="595.28px"
   height="841.89px"
   viewBox="0 0 595.28 841.89"
   enable-background="new 0 0 595.28 841.89"
   xml:space="preserve"
   inkscape:version="0.48.5 r10040"
   sodipodi:docname="windrose.svg"><metadata
   id="metadata3001"><rdf:RDF><cc:Work
       rdf:about=""><dc:format>image/svg+xml</dc:format><dc:type
         rdf:resource="http://purl.org/dc/dcmitype/StillImage" /></cc:Work></rdf:RDF></metadata><defs
   id="defs2999" /><sodipodi:namedview
   pagecolor="#ffffff"
   bordercolor="#666666"
   borderopacity="1"
   objecttolerance="10"
   gridtolerance="10"
   guidetolerance="10"
   inkscape:pageopacity="0"
   inkscape:pageshadow="2"
   inkscape:window-width="908"
   inkscape:window-height="756"
   id="namedview2997"
   showgrid="false"
   inkscape:zoom="3.3828647"
   inkscape:cx="281.70874"
   inkscape:cy="418.02941"
   inkscape:window-x="828"
   inkscape:window-y="79"
   inkscape:window-maximized="0"
   inkscape:current-layer="Laag_1" />

<path
   style="fill:none;stroke:#000000;stroke-width:1px;stroke-linecap:butt;stroke-linejoin:miter;stroke-opacity:1"
   d="m 273.73249,441.63753 c 20.39691,-58.23467 20.39691,-57.64345 20.39691,-57.64345 l 19.21449,59.12149 -19.21449,-6.79897 z"
   id="path3003"
   inkscape:connector-curvature="0" /><path
   style="fill:#ffffff;stroke:#000000;stroke-width:1px;stroke-linecap:butt;stroke-linejoin:miter;stroke-opacity:1"
   d="m 271.07201,440.1596 c 20.39691,-58.23467 20.39691,-57.64345 20.39691,-57.64345 l 19.21449,59.12149 -19.21449,-6.79897 z"
   id="path3003-1"
   inkscape:connector-curvature="0" /><path
   style="fill:#000000;fill-opacity:1"
   d="m 302.84647,438.71369 -8.68905,-3.0879 -9.62173,2.5049 c -5.29195,1.3777 -9.64368,2.47514 -9.67052,2.43876 -0.0417,-0.0566 16.4904,-46.9925 18.51794,-52.5738 l 0.71158,-1.95878 6.92774,21.32107 c 3.81026,11.72658 7.88629,24.28083 9.05784,27.89833 1.23538,3.81457 1.98837,6.57056 1.79268,6.5613 -0.18558,-0.009 -4.2475,-1.40553 -9.02648,-3.10388 z"
   id="path3025"
   inkscape:connector-curvature="0" /><path
   style="fill:#ffffff;fill-opacity:1"
   d="m 300.18601,437.23566 -8.68905,-3.08791 -9.62173,2.50491 c -5.29195,1.3777 -9.64369,2.47514 -9.67053,2.43875 -0.0417,-0.0566 16.49041,-46.9925 18.51795,-52.5738 l 0.71157,-1.95878 6.92775,21.32107 c 3.81026,11.72659 7.88629,24.28084 9.05784,27.89833 1.23537,3.81457 1.98836,6.57056 1.79267,6.5613 -0.18558,-0.009 -4.24749,-1.40553 -9.02647,-3.10387 z"
   id="path3033"
   inkscape:connector-curvature="0" /><text
   xml:space="preserve"
   style="font-size:25.54793167px;font-style:normal;font-weight:normal;line-height:125%;letter-spacing:0px;word-spacing:0px;fill:#000000;fill-opacity:1;stroke:none;font-family:Sans"
   x="302.21841"
   y="435.36105"
   id="text3035"
   sodipodi:linespacing="125%"
   transform="scale(0.94106565,1.0626251)"><tspan
     sodipodi:role="line"
     id="tspan3037"
     x="302.21841"
     y="435.36105">N</tspan></text>
</svg>