<?xml version="1.0" encoding="UTF-8" standalone="no"?>
<svg
   xmlns="http://www.w3.org/2000/svg"
   id="svg6"
   style="fill-rule:evenodd;clip-rule:evenodd;stroke-miterlimit:1.41421;fill:#96BFD2"
   xml:space="preserve"
   version="1.1"
   viewBox="0 0 32 32"
   height="100%"
   width="100%">
    <path
   id="path2"
   style="fill-rule:nonzero;stroke-opacity:0;fill-opacity:1"
   d="M9.23,26.804l1.562,-1.562l-4.033,-4.033l-1.562,1.562l0,1.836l2.196,0l0,2.198l1.838,0l-0.001,-0.001l0,0ZM18.205,10.878c0,-0.253 -0.126,-0.378 -0.378,-0.378c-0.114,0 -0.212,0.039 -0.292,0.12l-9.302,9.301c-0.08,0.08 -0.12,0.178 -0.12,0.293c0,0.251 0.126,0.378 0.377,0.378c0.116,0 0.213,-0.041 0.293,-0.121l9.302,-9.301c0.08,-0.081 0.12,-0.178 0.12,-0.292l0,0ZM17.278,7.583l7.14,7.139l-14.278,14.278l-7.14,0l0,-7.139l14.278,-14.278l0,0ZM29,9.23c0,0.606 -0.211,1.121 -0.634,1.544l-2.849,2.849l-7.14,-7.139l2.849,-2.832c0.411,-0.434 0.926,-0.652 1.544,-0.652c0.606,0 1.127,0.218 1.562,0.652l4.033,4.017c0.423,0.445 0.634,0.966 0.634,1.561l0.001,0Z" />
    <path
   id="path4"
   style="fill-rule:nonzero;stroke-width:1px;"
   d="M17,22.305l3.305,0l0,-3.305l3.39,0l0,3.305l3.305,0l0,3.39l-3.305,0l0,3.305l-3.39,0l0,-3.305l-3.305,0l0,-3.39Z" />
<path
   style="stroke-width:0.0135939"
   d="m 8.1299377,2.2552789 c -3.1537883,0 -5.7094444,2.5556562 -5.7094444,5.7094444 H 0.51734629 L 3.0553297,10.502707 5.5933131,7.9647233 H 3.6888055 c 0,-2.4550604 1.9860717,-4.4411304 4.4411322,-4.4411304 2.4550603,0 4.4411303,1.98607 4.4411303,4.4411304 0,2.4550587 -1.98607,4.4411317 -4.4411303,4.4411317 -0.9570127,0 -1.8460537,-0.311303 -2.5746879,-0.825151 L 4.655334,12.492853 c 0.9624482,0.736792 2.168228,1.181313 3.4746037,1.181313 3.1537863,0 5.7094433,-2.557015 5.7094433,-5.7094427 0,-3.1537882 -2.557016,-5.7094444 -5.7094433,-5.7094444 z m 0.316737,2.5379852 H 7.4951012 V 8.599558 L 10.508872,10.40755 10.984658,9.6272582 8.4466747,8.1237712 Z"
   id="path4543" /><path
   id="path5134"
   d="M 7.2140605,13.5219 C 6.4776655,13.397153 5.5032873,13.014206 5.0576271,12.674385 4.789762,12.470134 4.7910533,12.462773 5.1630559,12.073331 l 0.3766153,-0.39427 0.7078274,0.3503 c 0.6036661,0.298751 0.8874527,0.350116 1.9284695,0.349051 1.0703651,-0.0011 1.3088554,-0.04757 1.9371649,-0.377525 0.883228,-0.463823 1.663059,-1.250452 2.079539,-2.0976703 0.262208,-0.5333915 0.31628,-0.8604494 0.31914,-1.9303353 0.004,-1.5067089 -0.281981,-2.2586609 -1.213328,-3.190009 C 10.368983,3.8533722 9.6151524,3.5659912 8.1084746,3.5667532 6.9746445,3.5673268 6.7391256,3.6106267 6.1423729,3.9282195 4.8169521,4.6336108 3.8755045,5.9412437 3.6832587,7.34383 L 3.5988454,7.9596918 4.5014797,8.0001849 5.4041142,8.040678 4.2111664,9.2271909 3.0182187,10.413704 1.8034618,9.1932926 0.58870489,7.9728814 H 1.5500964 2.5114879 L 2.5831517,7.1825589 C 2.6835082,6.0758094 3.2590894,4.9400236 4.1949081,4.0021035 5.4956564,2.6984343 7.2639067,2.1002223 8.9426121,2.3959204 11.40237,2.8291982 13.235927,4.638749 13.685059,7.0762748 14.175898,9.7401567 12.27425,12.720286 9.6677966,13.371845 8.7745332,13.595142 7.9456477,13.645831 7.2140605,13.5219 Z"
   style="fill:#800000;fill-opacity:0.03137255;stroke-width:0.13559322" /><path
   id="path5136"
   d="M 7.2140605,13.5219 C 6.4776655,13.397153 5.5032873,13.014206 5.0576271,12.674385 4.789762,12.470134 4.7910533,12.462773 5.1630559,12.073331 l 0.3766153,-0.39427 0.7078274,0.3503 c 0.6036661,0.298751 0.8874527,0.350116 1.9284695,0.349051 1.0703651,-0.0011 1.3088554,-0.04757 1.9371649,-0.377525 0.883228,-0.463823 1.663059,-1.250452 2.079539,-2.0976703 0.262208,-0.5333915 0.31628,-0.8604494 0.31914,-1.9303353 0.004,-1.5067089 -0.281981,-2.2586609 -1.213328,-3.190009 C 10.368983,3.8533722 9.6151524,3.5659912 8.1084746,3.5667532 6.9746445,3.5673268 6.7391256,3.6106267 6.1423729,3.9282195 4.8169521,4.6336108 3.8755045,5.9412437 3.6832587,7.34383 L 3.5988454,7.9596918 4.5014797,8.0001849 5.4041142,8.040678 4.2111664,9.2271909 3.0182187,10.413704 1.8034618,9.1932926 0.58870489,7.9728814 H 1.5500964 2.5114879 L 2.5831517,7.1825589 C 2.8485215,4.2560151 6.0068588,1.8787977 8.9426121,2.3959204 11.40237,2.8291982 13.235927,4.638749 13.685059,7.0762748 14.175898,9.7401567 12.27425,12.720286 9.6677966,13.371845 8.7745332,13.595142 7.9456477,13.645831 7.2140605,13.5219 Z"
   style="fill:#800000;fill-opacity:0.03137255;stroke-width:0.13559322" /></svg>